inDegrees=no
num_controls=7
num_derivatives=13
num_iterations=79
num_multipliers=7
num_parameters=0
num_slacks=7
num_states=26
objective=0.453000
objective_accelerations=0.048697
objective_balance=0.001022
objective_effort=0.037770
objective_height=0.359879
objective_ligament=0.005632
solver_duration=926.124411
status=Solve_Succeeded
success=true
DataType=double
version=3
OpenSimVersion=4.5
endheader
time	/jointset/ground_pelvis/pelvis_tilt/value	/jointset/ground_pelvis/pelvis_tx/value	/jointset/ground_pelvis/pelvis_ty/value	/jointset/hip_r/hip_flexion_r/value	/jointset/hip_r/hip_adduction_r/value	/jointset/hip_r/hip_rotation_r/value	/jointset/back/lumbar_extension/value	/jointset/patellofemoral_r/patellar_flexion_r/value	/jointset/knee_r/knee_flexion_r/value	/jointset/knee_r/knee_adduction_r/value	/jointset/knee_r/knee_rotation_r/value	/jointset/ankle_r/ankle_angle_r/value	/jointset/subtalar_r/subtalar_angle_r/value	/jointset/ground_pelvis/pelvis_tilt/speed	/jointset/ground_pelvis/pelvis_tx/speed	/jointset/ground_pelvis/pelvis_ty/speed	/jointset/hip_r/hip_flexion_r/speed	/jointset/hip_r/hip_adduction_r/speed	/jointset/hip_r/hip_rotation_r/speed	/jointset/back/lumbar_extension/speed	/jointset/patellofemoral_r/patellar_flexion_r/speed	/jointset/knee_r/knee_flexion_r/speed	/jointset/knee_r/knee_adduction_r/speed	/jointset/knee_r/knee_rotation_r/speed	/jointset/ankle_r/ankle_angle_r/speed	/jointset/subtalar_r/subtalar_angle_r/speed	/forceset/tau_hip_flexion_r	/forceset/tau_hip_adduction_r	/forceset/tau_hip_rotation_r	/forceset/tau_knee_flexion_r	/forceset/tau_ankle_angle_r	/forceset/tau_subtalar_angle_r	/forceset/tau_lumbar_extension	lambda_cid13_p0	lambda_cid14_p0	lambda_cid14_p1	lambda_cid14_p2	lambda_cid14_p3	lambda_cid14_p4	lambda_cid14_p5	/jointset/ground_pelvis/pelvis_tilt/accel	/jointset/ground_pelvis/pelvis_tx/accel	/jointset/ground_pelvis/pelvis_ty/accel	/jointset/hip_r/hip_flexion_r/accel	/jointset/hip_r/hip_adduction_r/accel	/jointset/hip_r/hip_rotation_r/accel	/jointset/back/lumbar_extension/accel	/jointset/patellofemoral_r/patellar_flexion_r/accel	/jointset/knee_r/knee_flexion_r/accel	/jointset/knee_r/knee_adduction_r/accel	/jointset/knee_r/knee_rotation_r/accel	/jointset/ankle_r/ankle_angle_r/accel	/jointset/subtalar_r/subtalar_angle_r/accel	gamma_cid13_p0	gamma_cid14_p0	gamma_cid14_p1	gamma_cid14_p2	gamma_cid14_p3	gamma_cid14_p4	gamma_cid14_p5
0.5	-0.1365351072598487	0.02291988021250352	0.8050343413018517	0.8981072900060285	-0.2190910515984258	-0.1340244227705241	-0.6480486488652157	0.9612506665851922	0.9612506665851949	-0.06674726571833069	0.1745319994794106	0.2948613211497789	0.1447833974714728	-0.3673148007716309	-0.204687398727394	-0.5105079008759429	1.888226759339223	-0.03540175116582821	0.1955185100414502	-0.7365524982567687	1.953143624292419	1.953143624292417	-0.4156588627449203	-0.0002283673900251499	0.5328190805067147	0.1602642673730292	-0.1959202646849672	0.01544413297560281	0.01669442480962422	-0.2926342121014721	0.009045784471481265	-0.003207168381724262	0.2393560679925246	-8.237717345314719	-39.91530329014169	-8.073813189838704	1.357378073964531	-4.182745726108858	-640.2936385516078	57.27422175399025	0.3524944512620338	0.6000579576566167	-0.4341231427290773	-1.2548973116418	-0.2059802462761493	-0.421137152182845	1.821103571588063	-1.312425322178245	-1.312425322178918	0.5666834729808979	-0.05099904114881161	-0.582446564522781	-0.3938355943886039	-8.788922079053591e-08	2.125464407065136e-08	1.374641937062234e-06	-1.31816571886694e-07	-1.509919990332681e-07	-1.639585283413238e-07	9.550902103874579e-07
0.51	-0.1401898603862181	0.0209031999685599	0.7999087370987595	0.9169239288825775	-0.2194555964813938	-0.1320921260075452	-0.6553225129174383	0.9807134006846774	0.9807134006845936	-0.07087583892872955	0.1745290667097752	0.3001593729137744	0.1463654659104917	-0.3635774483731664	-0.1986303107565511	-0.5144981498776351	1.874847337227155	-0.03749372561176846	0.1909662076774278	-0.718134987632244	1.939139249652918	1.93913924965293	-0.4100078088227875	-0.0003663317002776067	0.5267122734046525	0.1561210061090437	-0.2022784977105464	0.01649902860760241	0.0170325441876256	-0.2977554358131229	0.008394638024995144	-0.002961115111295972	0.2453281883818269	-7.290608709840239	-40.4581051376017	-8.259835743689155	1.613018626615025	-4.177849906053202	-645.3333664420828	57.46925326867439	0.3931261854076908	0.6112390080788055	-0.3642825119103653	-1.417501357745841	-0.2086099551133633	-0.4685594203727786	1.864873491229786	-1.484022075174392	-1.484022075171774	0.571752211116848	0.003728305510687991	-0.6367002144777503	-0.4284987187032065	-6.376279345950937e-08	1.011921421988554e-07	1.755362569043635e-06	5.161593807192685e-07	-2.323842924768922e-07	-1.206005202086644e-07	1.200064537333068e-06
0.52	-0.143805485878348	0.01894763156258093	0.7947466690590465	0.9355991661986556	-0.2198406218910879	-0.1302046087966008	-0.662409642126746	1.000028175329651	1.000028175329597	-0.07494641442804359	0.1745245389833327	0.3053939761204671	0.1479053162716107	-0.3594892739239329	-0.1924650311344639	-0.5178006682001599	1.85994644724483	-0.03949785651209699	0.1865625996389542	-0.6992055296739144	1.923551733399888	1.923551733399918	-0.4040593205291431	-0.0005473587515641858	0.5201293690453969	0.1518206517930653	-0.2086367307361233	0.01755392423951848	0.01737066356634989	-0.302876659524683	0.007743491578487318	-0.00271506184102118	0.251300308771135	-6.403810175378776	-40.99833531905341	-8.439000163762628	1.860247722402743	-4.201112838039459	-650.3485522386335	57.68647978776407	0.4226588614158798	0.6216962879054613	-0.2965770068956194	-1.559190885693436	-0.1884115371537469	-0.3913982870730945	1.923493038349051	-1.629053644883821	-1.629053644883997	0.6261703472832334	-0.05961158935555157	-0.6776660159615036	-0.425254204787224	-5.771073963693951e-08	1.097824779218042e-07	1.736044994968518e-06	5.683558847818798e-07	-2.361470622647561e-07	-1.095627156264804e-07	1.206989054223246e-06
0.53	-0.1473785387434115	0.01705416073695392	0.7895550536544319	0.9541179481087355	-0.2202450756381619	-0.1283615327755463	-0.6693050128736502	1.019179096683293	1.019179096683273	-0.07895726817757395	0.1745184426228876	0.3105604143416332	0.1494016657427396	-0.3550662184566576	-0.1862199649563858	-0.5204030194137254	1.843564939848196	-0.04136589541564971	0.1819684110008015	-0.6797955126778013	1.906359088612136	1.906359088612298	-0.3981739006334571	-0.0006352449431556223	0.5130815769330873	0.1474441946715092	-0.2150123818162319	0.01874716320840882	0.01760666464589519	-0.307917195369843	0.006705717352837703	-0.002548585216690032	0.2572299394764462	-5.577990139181063	-41.68384400638113	-8.675375474382875	2.113414108571929	-4.027540422939251	-655.5017367868224	57.79555010876542	0.4604070945245958	0.6272395131809146	-0.2241759352593833	-1.714362351046658	-0.1817724242143478	-0.5061325345979599	1.96072208463562	-1.805376296771373	-1.8053762967514	0.5605874176940309	0.02229220648908975	-0.7298902059675715	-0.4442576180489434	-4.779534214727686e-08	1.185319738898473e-07	1.682567229460699e-06	6.131753925885391e-07	-2.358835990012778e-07	-1.009177776594898e-07	1.207051474916991e-06
